<svg fill="none" height="62" viewBox="0 0 82 62" width="82" xmlns="http://www.w3.org/2000/svg" xmlns:xlink="http://www.w3.org/1999/xlink"><clipPath id="a"><path d="m0 0h82v62h-82z"/></clipPath><g clip-path="url(#a)" fill="#161617" fill-opacity=".8"><path d="m4.00607 50.0867c-.20997.0054-.41721-.0027-.62718-.0246v-1.6361c.11725-.0082.28904-.0163.41448-.0163.68171 0 1.33889.1254 1.33889.8453.00272.5345-.38176.8317-1.12619.8317zm0 2.4432c-.20997.0055-.41721-.0027-.62718-.0245v-1.7834c.21542-.019.43357-.0272.64899-.0245.69535 0 1.25981.1882 1.25981.908 0 .7199-.69535.9244-1.28162.9244zm-.02182.6409c.97076 0 2.15149-.2727 2.15149-1.5653 0-.6271-.42266-1.088-1.10983-1.2434v-.0164c.55082-.1363.94622-.6217.97076-1.1889 0-1.1671-1.19709-1.3689-2.04242-1.3689-.46356 0-.9244.0219-1.38524.0709v5.2274c.46629.06.94077.09 1.41524.0846zm4.28935-2.3479.60263-1.7206c.06817-.1963.12544-.3981.17179-.6026h.03c.03545.1936.08726.3844.15543.5699l.619 1.7533zm-1.60339 2.3097h.79896l.5781-1.6579h2.03423l.5863 1.6579h.8617l-1.93338-5.3528h-.96258zm5.81909 0h.7117v-3.4904c-.0027-.3218-.0218-.6435-.0627-.9626l.0246-.0082c.0981.2209.2154.4363.3435.6409l2.5742 3.8176h.7581v-5.3065h-.7036v3.3731c-.0054.2672.0055.5345.0382.799l-.0245.0082c-.0628-.1255-.2264-.4472-.2891-.5481l-2.4269-3.6458h-.9462v5.3228zm8.3278.0927c.5045.0027 1.0063-.0873 1.478-.2672l.1091-.6954-.0246-.0163c-.4444.1581-.9135.2454-1.3852.259-1.2516 0-2.0506-.7581-2.0506-1.9797 0-1.2925.8917-2.1133 2.0424-2.1133.4499.0082.8971.09 1.3225.2427l.18-.6899c-.4772-.1691-.9817-.2509-1.4861-.2427-1.707 0-2.9259 1.1807-2.9259 2.9123.0027 1.1834.7444 2.5905 2.7404 2.5905zm4.8484-.6326c-1.3062 0-1.707-1.1044-1.707-2.1297 0-.9871.3981-2.097 1.6579-2.097 1.3553 0 1.707 1.1889 1.707 2.1052 0 1.0416-.4363 2.1215-1.6579 2.1215zm-.0464.649c1.5653 0 2.5824-1.1808 2.5824-2.9041 0-1.3062-.8454-2.6206-2.5196-2.6206-1.6034 0-2.5987 1.2299-2.5987 2.8551 0 1.527.938 2.6696 2.5359 2.6696zm16.8111-2.7705c-.2127 0-.4226-.0137-.6326-.0382v-1.9961c.15-.0081.2263-.0163.4526-.0163.7581 0 1.3062.2427 1.3062.9871.0027.829-.6463 1.0635-1.1262 1.0635zm-1.4616 2.6614h.829v-2.0752c.229.0246.4581.0382.6899.0382 1.0716 0 1.917-.7362 1.917-1.737 0-1.2298-1.0499-1.557-2.0806-1.557-.4145 0-.9708.0245-1.3526.0627v5.2683zm6.8962-.5399c-1.3061 0-1.707-1.1044-1.707-2.1297 0-.9871.3982-2.097 1.658-2.097 1.3525 0 1.707 1.1889 1.707 2.1052.0027 1.0416-.4363 2.1215-1.658 2.1215zm-.0463.649c1.5652 0 2.5823-1.1808 2.5823-2.9041 0-1.3062-.8453-2.6206-2.5196-2.6206-1.6034 0-2.5987 1.2299-2.5987 2.8551 0 1.527.9408 2.6696 2.536 2.6696zm5.2056-2.896c-.1855.0055-.3709-.0027-.5563-.0245v-1.8788c.0872-.0082.2181-.0164.3517-.0164.6899 0 1.4153.0873 1.4153.9163.0027.7307-.5836 1.0034-1.2107 1.0034zm-1.3826 2.7869h.829v-2.2388l.4854.0546 1.6443 2.1842h1.0007l-1.5406-1.9797c-.0982-.1255-.2127-.2373-.3436-.33v-.03c.8071-.1254 1.3552-.6735 1.3552-1.4561 0-1.3144-1.1262-1.5352-2.0887-1.5352-.4691 0-.9626.03-1.3389.0709zm6.0591 0h.8372v-4.6329h1.8379v-.6736h-4.5157v.6736h1.8379v4.6329zm5.8873.1254c1.0717 0 2.1433-.5726 2.1433-1.9251v-3.5068h-.7744v3.3895c0 1.0253-.6326 1.3525-1.3471 1.3525-.9707 0-1.4152-.3926-1.4152-1.3607v-3.3813h-.8372v3.5204c0 1.1589.5809 1.9115 2.2306 1.9115zm6.2091-.0327c.6571-.0082 1.3116-.0954 1.9497-.2672v-2.5442h-2.277v.6326h1.4698v1.4153c-.3599.0709-.7281.1036-1.0962.1009-1.3471 0-2.0806-.7199-2.0806-2.1215 0-1.2135.9162-2.0343 2.1052-2.0343.559.0028 1.1125.1146 1.6279.33l.2181-.6735c-.5835-.2373-1.2107-.3518-1.8379-.3354-1.6988 0-2.9804 1.1507-2.9804 2.8795-.0027 1.797 1.3443 2.6178 2.9014 2.6178zm4.5184-2.4024.6026-1.7206c.0682-.1963.1254-.3981.1718-.6026h.03c.0354.1936.0872.3844.1554.5699l.619 1.7533zm-1.6034 2.3097h.7989l.5781-1.6579h2.0343l.5862 1.6579h.8617l-1.9333-5.3528h-.9626zm5.8164 0h3.2013v-.6817h-2.3724v-4.6248h-.8289zm-46.4221-.5099c-.169.0027-.3354-.0028-.5017-.0191v-3.2668c.1445-.0164.289-.0218.4336-.0191 1.0771 0 1.8651.4527 1.8651 1.5925 0 .7199-.2672 1.2298-.7444 1.5025-.33.1554-.6926.2263-1.0526.21zm-.0763.5344c.259.0055.5208-.0109.7771-.0518 1.1917-.1718 1.8025-1.0962 1.8025-2.2142 0-1.4834-1.1153-2.0942-2.476-2.0942-.4008-.0055-.8044.0163-1.2025.0627v4.2457c.379.0273.7362.0518 1.0989.0518zm3.5858-.0245h2.6041v-.5536h-1.9278v-1.4261h1.5979v-.5427h-1.5979v-1.2543h1.8706v-.5427h-2.5469zm-33.04952 6.1h1.46978v-.3136h-1.08802v-.8044h.90259v-.3055h-.90259v-.7089h1.0553v-.3054h-1.43706zm4.15028.0572c.49084 0 .9844-.2617.9844-.8835v-1.6088h-.35449v1.5543c.03817.3054-.17998.5835-.48538.6217-.04363.0055-.08726.0055-.13089 0-.44448 0-.649-.18-.649-.6244v-1.5516h-.38448v1.617c-.00546.529.26178.8753 1.01984.8753zm3.42224-1.3361c-.0846.0027-.1691-.0028-.25636-.0109v-.8617c.04091-.0028.1009-.0082.16086-.0082.3163 0 .649.0382.649.4199.0027.3354-.2672.4609-.5535.4609zm-.63539 1.2789h.38176v-1.0281l.22363.0246.7553 1.0035h.4609l-.709-.9081c-.0464-.0572-.0982-.1091-.1582-.15v-.0136c.349-.0273.6217-.3163.6217-.6681 0-.6026-.5181-.7035-.9598-.7035-.21544 0-.44177.0136-.61356.0327zm4.42839-.2482c-.5999 0-.7826-.5072-.7826-.9762 0-.4527.1827-.9626.7608-.9626.6217 0 .7826.5454.7826.9653 0 .4772-.2018.9735-.7608.9735zm-.0218.2972c.7172 0 1.1862-.5426 1.1862-1.3334.0354-.6272-.4418-1.1644-1.0717-1.2025-.03-.0028-.0572-.0028-.0872-.0028-.7363 0-1.1917.5645-1.1917 1.3117 0 .7035.4309 1.227 1.1644 1.227zm3.4549 0c.5509 0 .8645-.3081.8645-.7362 0-.3272-.1855-.5345-.5454-.6899l-.27-.1173c-.1445-.0572-.3545-.1445-.3545-.3544 0-.1827.1609-.3027.4172-.3027.1855.0027.3654.0409.5345.1145l.1173-.3245c-.1964-.0791-.4091-.12-.6218-.1173-.5862 0-.8126.3736-.8126.679 0 .36.2345.5072.4881.6218l.2564.1063c.2727.12.409.2236.409.4281 0 .2564-.2045.3627-.4827.3627-.2127-.0082-.4199-.0545-.6135-.1391l-.1173.3272c.2346.0928.4827.1418.7308.1418zm2.5551-2.4841h.3818v2.4351h-.3818zm2.7787 2.4841c.5508 0 .8644-.3081.8644-.7362 0-.3272-.1854-.5345-.5454-.6899l-.2699-.1173c-.1446-.0572-.3545-.1445-.3545-.3544 0-.1827.1609-.3027.4172-.3027.1854.0027.3654.0409.5344.1145l.12-.3245c-.1963-.0791-.409-.12-.6217-.1173-.5863 0-.8126.3736-.8126.679 0 .36.2345.5072.4881.6218l.2563.1063c.2727.12.4091.2236.4091.4281 0 .2564-.2046.3627-.4827.3627-.2127-.0082-.4199-.0545-.6135-.1391l-.12.3272c.2345.0928.4826.1418.7308.1418zm3.1795-.049h.3845v-2.127h.8453v-.3081h-2.0724v.3081h.8453v2.127zm2.855 0h1.4698v-.3136h-1.088v-.8044h.9026v-.3055h-.9026v-.7089h1.0553v-.3054h-1.4371zm3.0541 0h.3272l.1391-1.6989.0109-.1663c.0027-.0682 0-.15-.0027-.2263h.0136c.0245.1118.06.2672.1009.3817l.559 1.7098h.3654l.5617-1.7016c.0382-.1254.0764-.2754.1036-.4036h.0137c-.0027.1118-.0082.15-.0082.2264 0 .0736.0055.1499.0136.2236l.1391 1.6552h.3654l-.2154-2.4351h-.499l-.5754 1.7615c-.0273.0873-.0491.1773-.0654.27h-.0109c-.0191-.0655-.0464-.2018-.0682-.2727l-.5754-1.7561h-.4772zm4.9192-1.0608.2755-.7908c.0327-.09.0572-.1827.079-.2754h.0137c.0163.09.0409.1773.0709.2618l.2836.8044zm-.7362 1.0608h.3654l.2645-.7608h.9353l.27.7608h.3954l-.8863-2.4569h-.4417z"/><path d="m22.7596 38.6477c-10.6838 1.5161-20.57682-5.9146-22.092952-16.6011-.968035-6.8253 1.728832-13.65611 7.100742-17.97546-7.921526 6.54446-9.03681 18.26996-2.49235 26.19146s18.26996 9.0368 26.19146 2.4924c7.9215-6.5445 9.0368-18.27 2.4924-26.19151-4.0931-4.95197-10.4521-7.441594-16.8193-6.5880872.0409-.0054537.0818-.0136342.1254-.0190879 10.6839-1.5161349 20.5742 5.9145551 22.093 16.5983851 1.5162 10.6838-5.9145 20.5741-16.5984 22.093zm-2.6886-15.8921c-2.3833-.5863-4.7311-3.065-3.0623-5.4619.619-.3082 1.0062-.9462.9899-1.6389-.0682-.728-.4745-.8617-.8045-1.3907-.3381-.5399.9326-1.4943.2182-2.5932.4445-.0873 1.1153-.3954 1.2816.4008.6708 3.1986.4636 7.6052 1.3771 10.6839zm-14.12516-9.8685.73626.8698.02181.0219c.23996-.0028.40903-.3982-.00818-.889-1.3198-1.5461-.33268-3.27223 2.32601-.8453.36813.3354.95167.7962 1.46436.8262-.48.3654-1.11805.9381-1.64979 1.1944-.49901.2645-1.07983.3354-1.62793.199l-.05726.0382 4.46118 5.4537-.9108-.3926-3.83943-4.5403c.10089.8208-.44721 1.5298-.67354 1.767l-1.11255 1.1726c-.02455-.499-.38994-1.1589-.68444-1.5516-2.17331-2.8714-.36268-3.6949 1.05529-2.2387.40357.4144.67081.3599.8426.1799l-.76898-.9107c-.36539.1009-.7417-.1118-.84259-.4772-.1009-.3654.1118-.7417.4772-.8426.36539-.1009.7417.1118.84259.4772.01091.0354.01637.0709.02182.1063.00818.1336-.01364.2645-.07363.3818zm12.83536 15.0359c.0163.1854-.0464.3108-.2836.3026l-2.2224-2.6014c.0791-.0245.1418-.0845.169-.1636.0546.0109.1118-.0054.1528-.0436zm-10.01851-10.3239c-.34631.4472-.71717.878-1.10983 1.2816 1.14528.3054 2.26874.6817 3.36764 1.1235.2754.1172.5454.2154.8263.319.908.3354 1.8542.6736 2.6205 1.2216.3217.2291.788.5018 1.1098.7527.2482.2127.4663.4581.649.7308.0682.1118.1254.229.1691.3517.0954.3.1718.6081.2317.9162.011.2264.0028.4527-.0245.6763-.0054.0464-.0027.1745-.0518.1963-.0327.0137-.0709-.0081-.0927-.0463-.0709-.27-.0982-.5508-.0791-.8317-.1936-.4936-.1554-.5863-.1882-.5917-.0245-.0028-.0436.0163-.0463.0381-.0273.1446.1091.5999.1227.9463.0109.2945.0245.5835.0109.6735-.0218.1391-.1254.1145-.15.0191-.0136-.0518-.0191-.2209-.0436-.4145-.0245-.1854-.0573-.3981-.0927-.5808-.0464-.2509-.1145-.469-.18-.4581-.0191.03.0709.3872.12.7171.0354.2291.0518.4581.0518.6899-.0054.0273-.0273.0491-.0573.0518-.0709.0028-.0954-.0818-.1118-.1636-.03-.1418-.0463-.3327-.0927-.5563-.0545-.3763-.1336-.7198-.2154-.6844-.0109-.0082.0845.3599.1282.6981.0218.1254.0245.2536.0163.3817-.0027.0328-.0272.0573-.0572.06-.0764.0055-.1227-.3217-.1418-.379-.0873-.3109-.1936-.6163-.3191-.9162-.3845-.4745-.788-.6436-1.1534-1.4207v-.0027c-.2536-.1391-.5154-.2591-.7881-.3573-.2618-.0954-.529-.1772-.799-.2481-2.0233-.5263-4.52109-.5372-6.1463-1.2925-.28359-.1364-.56173-.2891-.82624-.4582-.03545-.4635.04908-.9271.24269-1.347.50992-1.2162.75534-1.9334 1.52431-2.9587zm15.92481 17.3319c-2.5005.7526-5.1401.9326-7.7197.529.7417-2.4651.6354-3.4958.5781-6.2091 1.1153.7363 1.9088 1.2844 4.7311 1.9716.4199 1.0771 1.0335 2.6614 2.4105 3.7085zm-10.5584-29.13103c-.9653.40903-1.7015 1.98243-1.2407 3.0459-.5808.38994-1.8433-2.94501 1.2407-3.0459zm-3.2695 6.78713c.8236-.3327 1.718-.3763 2.2961-1.1507.3054-.4199.5726-.8672.7962-1.3334-.1445-.18275-.3763-.33-.5263-.5127-.9026-1.08529 0-4.04938 2.2388-4.0712.6844-.00545 1.557.19634 1.8324.89169-1.3852-.79352-3.2886.32722-2.9695 1.73155.229-1.26253 1.8788-1.91425 3.035-1.28435.019.15271-.2073.71171-.1091.92168.1636.34631.4608.75261.5808.95713.0191.03272.0654.09544.0082.11725-.1118.0409-.2482.05999-.3109.14998l.1309.30541c-.0627.05453-.0573.16088-.1854.16361.0382.06544.0791.11453.1172.17724l-.1963.22361.03.2181c.0327.1446-.0082.2973-.1063.4063-.09.0928-.2155.1446-.3464.1418l-1.0062.0464c-.3735.3681-.4472.7772-.5862 1.3007.3026.0545.6108.0436.908-.0354-.1718 2.6314-2.3151 2.5768-4.5075 1.3525.3381.8426.1336 1.2816-.0982 1.8842-.6953 1.8107 1.598 2.9096 2.7596 1.7207-2.2278.7853-2.7705-.649-2.3424-1.7452.1091-.2754.3491-.4417.1964-1.208 3.6812 2.2033 4.4966-1.1698 4.562-2.1433.469.3872-.0491 1.4834-.2699 1.9715-.0791.1663-.0873.3572-.0191.5263.0981.2318.758.9735.8098 1.3089.0846.5644-.3163 1.3661-1.7097 1.4398.1827.1881.4363.289.6981.2808-.4063.3654-.3763 1.009-.7472 1.3962-.2181.2263-.5944.4445-1.3007.3654.3354.3108 1.2244.1881 1.4834-.0082.0518.319.1227.6354.21.9489-.7335.4745-1.8434.1118-2.0424.0437.3027.3408 1.2189.7144 2.2142.4826 2.1515 4.2321 8.4151 1.598 14.1906 7.2644.1445.1227.259.2781.3354.4499.349.8126.5944 1.6688.7308 2.5442-.2782.2645-1.2571 1.1098-1.5571 1.3552.0546-.878-.0054-2.2142-.2945-2.7677-1.8024-1.448-5.0965-3.0705-7.8724-3.7931 1.5379.7199 5.3637 2.5223 6.7653 3.9621.2972.2754.5018.6354.5836 1.0335.1772.5808.3517 1.1644.529 1.7452-1.1617.8699-2.4269 1.5897-3.7713 2.1378-.7444-.0845-2.5605-1.8079-3.0513-3.1849 1.906.2781 3.1958-.0682 3.9348-.4363-3.3131.7117-9.3449-1.1698-9.6912-3.594.3626.439.7635.8453 1.1971 1.2107.2563.12.7908-.0191.6599-.679l-2.277-2.6559c.0682-.2645.1091-.5345.1146-.8099-.0573-.3518-.1364-.7035-.2345-1.0471-.1118-.3382-.3-.6463-.5509-.8999-1.1262-1.1289-2.3369-1.6797-3.6103-2.2769-.1009-.1527-1.5816-1.8625-1.598-1.9225-.2181-.8398-.589-1.8924-.5835-2.7514-.2454.3818-.51266.7527-.79626 1.1072l-1.54613-1.6989c.58901-.0027 1.72611-.5044 2.79229-1.677.1309-.1418.2591-.2972.3845-.4581-.1091-.0164-.2154-.0682-.3109-.1391zm19.4098-7.41431c.0709 0 .1309.02455.1445.06272.0219.05999-.1118.12816-.1554.14452-.3163.08999-.6381.15544-.9653.20452-.2263.08453-.7417.60809-.9489.76897l-.2973.23451c.1555.09544.1718.33268.4663.41994.3518.10362.8535.16361.9681.34086.0872.13361-.0519.19906-.1964.16906-.1227-.02454-.3217-.05181-.4826-.06817-.0955-.01091-.18-.00818-.2236-.01636-.1091-.01909-.2127-.04363-.3164-.05181-.2399-.01636-.4826-.01364-.7226.01363-.1663.02182-.3326 0-.4881-.06271-.1118-.05182-.09-.1009-.3408-.03273-.3954.11726-.7363.36813-.9653.70899-.6136.81533-1.0772 1.63884-1.658 2.32597-.7989.9381-2.9641 2.6942-4.562 3.1877-.0273-.6626-.1663-1.317-.4145-1.9333 4.3384-2.11332 1.388-.1936 4.8729-3.16044.998-.85078 2.4814-2.23057 4.0412-2.66141.4363-.11998.8617-.44993 1.2516-.52356.1146-.02454.7145-.0709.9926-.0709zm-.9871.65172c.06.01091.1172.03.1691.05999.0736.04091.139.09272.1936.15816.1418.14725.2699.30541.3899.47175.0491.1527.09.31086.1145.47174-.0272.05727-.1254-.01363-.1527-.0409-.0681-.10907-.12-.22633-.1581-.34904-.1527-.05453-.2182-.23996-.2891-.25359.0109.01363.12.27541.1309.28904.0027.17725-.0191.35449-.0627.52629-.0518.03817-.0873-.02455-.1064-.06545-.049-.13907-.0627-.28905-.0409-.43357-.1008-.09544-.1772-.21269-.2236-.34358-.019.00272-.0572.0109-.0872.01636.0436.0709.0872.16906.1363.25905.0355.1118.0518.22906.0518.34358 0 .02727.0055.08181-.03.08999-.0381.01091-.0709-.04908-.0845-.07635-.0436-.09544-.0736-.19906-.0845-.30268-.0791-.04363-.1473-.10908-.1909-.18816-.1309-.00272-.2618-.02727-.3899-.06544.2399-.15816.4662-.41448.7144-.56719zm-20.89592 25.59159c-1.58703-3.6377-2.57415-7.927-2.72413-9.4895l3.36222-.0873c.5999-.0163 2.78143.1855 3.92663.6.2346.0818.4636.1799.6845.2917.0191.0355.0463.0873.0682.1227-1.2626.12-4.60571.4145-6.20637.559.32995 2.5006 1.6552 6.9208 3.30227 9.7922-.85628-.5236-1.66343-1.1235-2.41332-1.7888zm7.85882 3.943c-.3572-.0736-.709-.1582-1.058-.2536.7962-1.4643.7389-4.7229.3572-7.4661-.1527-1.0989-.5945-2.626-.8481-3.7385.2509.1008.4227.6708.4963.9162.0273.15.0791.2918.15.4254.15.2045.2863.199.3763.1718.06.1527.2263.2372.3845.1936.0491.0245.1063.0327.1609.0218.4799 2.3751.6462 4.8047.4935 7.2234-.0354.8535-.2072 1.7016-.5126 2.506z"/></g></svg>